# xmcd
# 
# Track frame offsets:
#   300
#   20152
#   38237
#   55550
#   69475
#   85255
#   101662
#   122135
#   138515
#   151307
#   166325
#   183057
#   196905
#   213542
# 
# Disc length: 3120 seconds
# 
# Revision: 2
# Processed by: cddbd v1.5.1PL2 Copyright (c) Steve Scherf et al.
# Submitted via: Synapstar 1.0 
# 
DISCID=bf0c2c0e
DTITLE=Various Artist - SDP008
DYEAR=1900
DGENRE=Country
TTITLE0=Alan Jackson - Gone Country
TTITLE1=Vince Gill - When Love Finds You
TTITLE2=Reba McEntire - Till You Love Me
TTITLE3=David Ball - When The Thought Of You Catches Up To Me
TTITLE4=Diamond Rio - Night Is Fallin In My Heart
TTITLE5=Neal McCoy - The City Put The Country Back In Me
TTITLE6=Toby Keith - Upstairs Downtown
TTITLE7=Rhett Akins - What They're Talking About
TTITLE8=Ricky Van Shelton - Wherever She Is
TTITLE9=Wade Hayes - Old Enough To Know Better
TTITLE10=Doug Stone - Little Houses
TTITLE11=Patty Loveless - Here I Am
TTITLE12=George Jones/Alan Jackson - A Good Year For The Roses
TTITLE13=Sammy Kershaw - Southbound
EXTD=MediaType: Karaoke CD+G Producer: StarDisc
EXTT0=
EXTT1=
EXTT2=
EXTT3=
EXTT4=
EXTT5=
EXTT6=
EXTT7=
EXTT8=
EXTT9=
EXTT10=
EXTT11=
EXTT12=
EXTT13=
PLAYORDER=
